<svg xmlns="http://www.w3.org/2000/svg" width="512" height="512" viewBox="0 0 512 512">
  <!-- Background -->
  <rect x="32" y="32" width="448" height="448" rx="112" fill="#0E0E0E"/>

  <!-- Outer C -->
  <path
    d="
      M256 140
      C190 140 144 186 144 256
      C144 326 190 372 256 372
      C286 372 314 362 336 344
      L320 320
      C304 334 282 342 256 342
      C210 342 176 308 176 256
      C176 204 210 170 256 170
      C282 170 304 178 320 192
      L336 168
      C314 150 286 140 256 140
      Z"
    fill="#D6D6D6"
  />
</svg>